<?xml version="1.0" encoding="UTF-8"?>
<svg xmlns="http://www.w3.org/2000/svg" version="1.1" viewBox="0 0 96 32">
  <defs>
    <style>
      .cls-1 {
        fill: #111827;
      }

      .cls-2 {
        fill: #8b5cf6;
      }
    </style>
  </defs>
  <!-- Generator: Adobe Illustrator 28.6.0, SVG Export Plug-In . SVG Version: 1.2.0 Build 709)  -->
  <g>
    <g id="Layer_1">
      <g>
        <rect class="cls-1" x="93.578" y="11.065" width="2.146" height="2.294"/>
        <rect class="cls-1" x="32.902" y="11.065" width="2.146" height="2.294"/>
        <path class="cls-2" d="M18.397,6.991H6.301L.277,13.063l5.873,5.873H.277v6.072h12.096l6.024-6.072-5.873-5.873h5.873v-6.072ZM12.325,18.937h-5.976v-5.873h4.493l1.483,1.483v4.391Z"/>
        <path class="cls-1" d="M27.286,21.103c-1.343,0-2.712-.417-4.105-1.25v-2.22c.473.398,1.088.765,1.847,1.101.759.336,1.511.504,2.258.504.535,0,.973-.099,1.315-.298.342-.199.513-.466.513-.802,0-.323-.193-.588-.578-.793-.386-.205-1.039-.407-1.959-.606-1.219-.261-2.118-.613-2.696-1.054-.578-.441-.868-1.048-.868-1.819,0-.92.385-1.645,1.157-2.174.771-.529,1.723-.793,2.855-.793,1.231,0,2.5.361,3.806,1.082v1.978c-1.368-.808-2.637-1.213-3.806-1.213-.535,0-.977.103-1.325.308-.348.205-.522.476-.522.812,0,.087.012.168.037.243.025.075.068.14.131.196.062.056.124.109.187.159.062.05.152.097.271.14.118.044.224.084.317.121.093.037.224.075.392.112.168.037.311.072.429.103.118.031.286.069.504.112.217.044.395.084.532.121,1.169.274,2.009.656,2.519,1.147.51.492.765,1.104.765,1.838,0,.983-.386,1.72-1.157,2.211-.771.492-1.71.737-2.817.737Z"/>
        <path class="cls-1" d="M37.23,20.954v-9.889h2.146v1.269c.696-.958,1.611-1.437,2.743-1.437.647,0,1.244.162,1.791.485.547.324.982.784,1.306,1.381.373-.585.858-1.042,1.455-1.371.597-.329,1.225-.494,1.884-.494,1.008,0,1.878.358,2.612,1.073.734.715,1.101,1.689,1.101,2.92v6.064h-2.146v-5.56c0-.796-.174-1.418-.522-1.866-.348-.448-.84-.672-1.474-.672-.709,0-1.259.236-1.651.709-.392.473-.606,1.07-.644,1.791v5.597h-2.146v-5.56c0-.784-.174-1.402-.522-1.856-.348-.454-.84-.681-1.474-.681-.759,0-1.334.268-1.726.802-.392.535-.588,1.201-.588,1.996v5.299h-2.146Z"/>
        <path class="cls-1" d="M54.19,20.954v-9.889h2.146v1.269c.696-.958,1.611-1.437,2.743-1.437.647,0,1.244.162,1.791.485.547.324.982.784,1.306,1.381.373-.585.858-1.042,1.455-1.371.597-.329,1.225-.494,1.884-.494,1.008,0,1.878.358,2.612,1.073.734.715,1.101,1.689,1.101,2.92v6.064h-2.146v-5.56c0-.796-.174-1.418-.522-1.866-.348-.448-.84-.672-1.474-.672-.709,0-1.259.236-1.651.709-.392.473-.606,1.07-.644,1.791v5.597h-2.146v-5.56c0-.784-.174-1.402-.522-1.856-.348-.454-.84-.681-1.474-.681-.759,0-1.334.268-1.726.802-.392.535-.588,1.201-.588,1.996v5.299h-2.146Z"/>
        <path class="cls-1" d="M75.479,21.103c-1.356,0-2.516-.504-3.48-1.511-.964-1.008-1.446-2.208-1.446-3.601,0-1.418.482-2.621,1.446-3.61.964-.989,2.124-1.483,3.48-1.483,1.343,0,2.407.498,3.191,1.493v-1.325h2.146v9.889h-2.146v-1.325c-.796.983-1.86,1.474-3.191,1.474ZM75.685,19.144c.858,0,1.592-.311,2.202-.933.609-.622.914-1.362.914-2.22s-.305-1.598-.914-2.22c-.61-.622-1.343-.933-2.202-.933-.871,0-1.608.311-2.211.933-.603.622-.905,1.362-.905,2.22,0,.871.298,1.614.896,2.23.597.616,1.337.924,2.22.924Z"/>
        <path class="cls-1" d="M82.122,20.954l3.209-4.944-3.209-4.944h2.37l2.519,3.769,2.519-3.769h2.37l-3.209,4.944,3.209,4.944h-2.37l-2.519-3.788-2.519,3.788h-2.37Z"/>
        <polygon class="cls-1" points="35.047 15.44 32.902 12.99 32.902 20.954 35.047 20.954 35.047 15.44"/>
        <polygon class="cls-1" points="95.723 15.44 93.578 12.99 93.578 20.954 95.723 20.954 95.723 15.44"/>
      </g>
    </g>
  </g>
</svg>